<?xml version="1.0" encoding="utf-8"?>
<!-- Generator: Adobe Illustrator 22.1.0, SVG Export Plug-In . SVG Version: 6.00 Build 0)  -->
<svg version="1.1" id="Layer_1" xmlns="http://www.w3.org/2000/svg" xmlns:xlink="http://www.w3.org/1999/xlink" x="0px" y="0px"
	 viewBox="0 0 500 500" style="enable-background:new 0 0 500 500;" xml:space="preserve">
<style type="text/css">
	.st0{fill:#302E2F;}
	.st1{fill:#FEFEFE;}
	.st2{fill:#EFEFEF;}
	.st3{fill:#EEEEEE;}
</style>
<title>Paper</title>
<path class="st0" d="M341,195.8c4.6,4.8,9.6,8.6,11.2,15.5c2.5,3.3,4.8,6.7,7.5,9.7l93.8,106c13.8,15.5,17.3,37.5,9.3,58
	c-2,5.7-6.5,10.2-12.3,12.1c-7.7,2.9-15,6.3-23,7.7c-2.3,0.4-4.9,0.4-6.2,3c-6.6,13.1-18.4,16-29.6,20.4
	c-11.9,4.6-22.8,4.4-32.1-6.5c-3.2-3.6-5.5-3.4-9.1,0c-21.1,19.8-38.4,18.8-57.8-2.8c-0.7-1,0.2,0.2-0.5-0.8
	c-4-5.4-7.5-6.2-13.6-2.4c-17.4,11.2-28.5,9.2-42.4-6.5c-44.3-50.1-88.6-100.1-133-150.1c-3.3-3.6-5.9-7.5-7-12.5
	c-3.1-7.1-8.2-13.1-7.7-22c0.5-7.4-2.7-13.3-7.3-18.5c-12.1-13.9-24.2-27.8-36.5-41.3c-4.7-4.9-8.1-10.9-9.8-17.5
	c-4-15.6-1.6-31.3-2-47c-0.3-13.7,3.4-19.2,15-23.6c28.2-10.6,56.2-21.3,84.3-31.8c30.3-11.3,27.7-14.7,52.1,14.1
	c4.8,5.7,9.8,7.7,16.6,7.7c26.7-0.2,53.5,0,80.2-0.2c9.3-0.2,16.6,3.2,23,10.7c13.3,15.5,27.1,30.8,40.8,46.3
	c15.2,17.1,18.7,37.2,10.7,59.6C353.8,191.5,347.1,193.1,341,195.8z"/>
<path class="st1" d="M97.7,169.5c0.7-10.5-3.4-17.7-9.8-24.6c-12.9-13.6-25-27.8-36.3-42.7c-2.5-3.2-5.9-6.1-4.5-11.3
	c29.3-12.8,59.2-23.1,89-34.2c27.5-10.3,18.8-12.7,39.8,10.9c6.9,7.9,14.4,11.7,24.4,11.5c26.7-0.4,53.5,0,80.2-0.2
	c5.1,0,9.8,1,13.7,5.4c16.2,18.3,32.5,36.5,48.5,54.8c4.3,4.9,6.6,30.5,3.6,35.7c-0.8,1.3-2,2.3-3.4,2.8c-6.9,2.5-13.5,6.5-21,7.3
	c-3.4-4.8-3.6-10.3-3.6-16.1c-0.2-17.1-1.1-18.6-15.7-24.2c-10.5-4-21.8-6.8-30.5-15.5c-2.3-0.8-3.9-5.4-6.8-2
	c-2.5,3.1,0.3,5.3,2.1,7.5l3.7,4.2c58.1,65.7,116,131.8,174.7,196.9c10.5,11.7,10.2,24.6,8.4,37.9c-1.3,10.1-12,7.9-18.2,11.5
	c-2,1.2-4.5,1.6-6.8,2.2c-9.3,2.8-9.5-5.1-9.1-11.1c0.7-12.7-4.1-21.7-11.8-30c-14.6-16.2-28.9-32.7-43.3-49
	c-5.1-5.8-10.6-10.9-17.6-13.1c-7.6-2.4-14.1-7.1-20.3-12.1c-1.1-0.8-2-1.6-2.9-2.4c-1.7-1.8-3.6-3.2-5.4-1.2
	c-2.3,2.7-0.2,4.9,1.4,6.9l3.7,4.2l76.1,86c6.2,6.9,10,27.6,6.6,36.5c-0.6,1.6-1.4,3.4-2.7,3.8c-9.4,3.5-18.2,9.9-28.7,9.1
	c-2.7-4.2-3.9-9.3-3.4-14.3c0.7-9.5-2.8-16.5-8.7-23c-14.4-16.3-29.2-32.3-42.6-49.8c-7.5-9.9-15.7-19.2-27.1-23.6
	c-6.6-2.5-12.7-5.9-18.4-10c-1.4-1.4-3.2-2.8-4.6-4.4c-1.7-1.6-3.6-3-5.4-1c-2,2-0.7,4.2,0.9,6c1.4,1.6,2.9,3.4,4.3,5l64.9,73.3
	c5.4,5.9,8.8,30.3,5.4,36.9c-0.5,1.2-1.4,2.6-2.5,2.8c-7.2,2.2-13.8,7.8-21.8,6.6c-2.7-3-3.4-7.1-3.2-11.1
	c0.8-12.3-4.4-21.7-11.9-30c-10-11.1-20-22.2-29.6-33.5S252.1,323,238,319.4c-3.9-1-7.3-4.4-10.7-7c-1.4-1.4-2.9-2.8-4.6-4.4
	s-3.4-3.2-5.4-1s-0.5,4.2,0.9,6l4.5,5c15.9,17.9,31.9,35.9,47.8,54c4.8,5.6,8,22.8,4.1,27c-5,5.3-11.2,9.7-18.9,6.5
	c-2.1-2.6-3.3-5.8-3.2-9.1c0-7-3-12.1-7.1-16.7c-21.8-23.9-41.5-49.7-63.3-73.7c-23.7-26.2-46.9-53.2-70.6-79.6
	c-5.7-6.3-8.4-13.1-8.2-22.2c0.1-8.1,1.7-16.5-1.3-24.4h-0.7l-0.5-0.4C97.8,177,97.5,173.2,97.7,169.5z"/>
<path class="st2" d="M248.6,399.3c-45.7-51.3-91-102.9-136.8-154.1c-6.1-6.7-8.4-13.9-8.4-23.2c0-14.1,1.4-28.2-1.1-42.1
	c5.2,7.5,1.8,16.1,2.3,24.2c0.4,6,1.5,10.7,5.4,15.1c45.1,50.7,90.2,101.7,134.6,153.5c8.4,9.8,13.2,19.3,11.4,32.8
	C252,405.7,250.4,401.9,248.6,399.3z"/>
<path class="st2" d="M96.2,199.1c-3.2-0.6-4.6-3.8-6.6-6c-11.9-13.3-23.8-27-35.8-40.5C49.5,148,44,144,44,136.5
	c0.2-14.7-1.9-29.4,1.3-43.9c0.1-0.8,1.4-1,2.1-1.6c12.2,15.7,23.8,32.2,38.1,45.7c12.1,11.5,17.8,25,15.3,42.7
	C93,184.1,99.8,193.1,96.2,199.1z"/>
<path class="st2" d="M353.8,393.3c-2.3-2.5-5.4-4.5-5.9-8.5c-1-8.7-6.2-14.2-11.2-20c-20.5-23.3-40.8-46.7-61.3-70.1
	c15.7,3.4,30.2,9.5,41.4,23.2c13.1,16.3,26,33,40.6,47.5c14.1,13.7,21,29,18,49.8C366.7,409.7,361.2,400.3,353.8,393.3z"/>
<path class="st2" d="M282.4,383.7c-0.4-0.4-0.2-1.4-0.4-2c-1.2-7.8-5.7-13.1-10.3-18.3c-14.8-16.9-29.4-33.9-44.2-50.8
	c16.1,4,31,9.7,42.5,24.8c8.6,11.4,18.1,22.1,28.4,32c14.3,13.3,21.1,29.4,18.2,50.2C302.8,410.3,293.6,395.8,282.4,383.7z"/>
<path class="st2" d="M413.3,377c-1.6-8-5.9-13.5-10.7-18.9c-25.1-28.6-50.3-57.4-75.4-86c18.7,5.8,35.8,14.1,49,31.8
	c10,13.5,21.6,25.8,33.2,37.7c9.8,10.3,16.1,21.4,14.1,36.9c-0.5,4.9,0.6,8.9,5.9,8.9C422.5,389.6,415.2,385.5,413.3,377z"/>
<path class="st3" d="M272.1,129.1c12.7,4.6,25.3,9.7,38,14.1c8.2,3,12,9,11.8,18.7c-0.2,7.7,0,15.5,0,23.2
	C304.6,167.3,288.4,148.4,272.1,129.1z"/>
</svg>
