<?xml version="1.0" encoding="utf-8"?>
<!-- Generator: Adobe Illustrator 22.1.0, SVG Export Plug-In . SVG Version: 6.00 Build 0)  -->
<svg version="1.1" id="Layer_1" xmlns="http://www.w3.org/2000/svg" xmlns:xlink="http://www.w3.org/1999/xlink" x="0px" y="0px"
	 viewBox="0 0 500 500" style="enable-background:new 0 0 500 500;" xml:space="preserve">
<style type="text/css">
	.st0{fill:#302E2F;}
	.st1{fill:#FEFEFE;}
	.st2{fill:#EFEFEF;}
	.st3{fill:#EEEEEE;}
</style>
<title>Paper</title>
<path class="st0" d="M144,183.1c-8-22.4-4.5-42.5,10.7-59.6c13.7-15.5,27.5-30.8,40.8-46.3c6.4-7.5,13.7-10.9,23-10.7
	c26.7,0.2,53.5,0,80.2,0.2c6.8,0,11.8-2,16.6-7.7c24.4-28.8,21.8-25.4,52.1-14.1c28.1,10.5,56.1,21.2,84.3,31.8
	c11.6,4.4,15.3,9.9,15,23.6c-0.4,15.7,2,31.4-2,47c-1.7,6.6-5.1,12.6-9.8,17.5c-12.3,13.5-24.4,27.4-36.5,41.3
	c-4.6,5.2-7.8,11.1-7.3,18.5c0.5,8.9-4.6,14.9-7.7,22c-1.1,5-3.7,8.9-7,12.5c-44.4,50-88.7,100-133,150.1
	c-13.9,15.7-25,17.7-42.4,6.5c-6.1-3.8-9.6-3-13.6,2.4c-0.7,1,0.2-0.2-0.5,0.8c-19.4,21.6-36.7,22.6-57.8,2.8
	c-3.6-3.4-5.9-3.6-9.1,0c-9.3,10.9-20.2,11.1-32.1,6.5c-11.2-4.4-23-7.3-29.6-20.4c-1.3-2.6-3.9-2.6-6.2-3c-8-1.4-15.3-4.8-23-7.7
	c-5.8-1.9-10.3-6.4-12.3-12.1c-8-20.5-4.5-42.5,9.3-58l93.8-106c2.7-3,5-6.4,7.5-9.7c1.6-6.9,6.6-10.7,11.2-15.5
	C152.5,193.1,145.8,191.5,144,183.1z"/>
<path class="st1" d="M398.8,179.4l-0.5,0.4h-0.7c-3,7.9-1.4,16.3-1.3,24.4c0.2,9.1-2.5,15.9-8.2,22.2
	c-23.7,26.4-46.9,53.4-70.6,79.6c-21.8,24-41.5,49.8-63.3,73.7c-4.1,4.6-7.1,9.7-7.1,16.7c0.1,3.3-1.1,6.5-3.2,9.1
	c-7.7,3.2-13.9-1.2-18.9-6.5c-3.9-4.2-0.7-21.4,4.1-27c15.9-18.1,31.9-36.1,47.8-54l4.5-5c1.4-1.8,2.9-3.8,0.9-6s-3.7-0.6-5.4,1
	s-3.2,3-4.6,4.4c-3.4,2.6-6.8,6-10.7,7c-14.1,3.6-23.9,14.1-33.5,25.4s-19.6,22.4-29.6,33.5c-7.5,8.3-12.7,17.7-11.9,30
	c0.2,4-0.5,8.1-3.2,11.1c-8,1.2-14.6-4.4-21.8-6.6c-1.1-0.2-2-1.6-2.5-2.8c-3.4-6.6,0-31,5.4-36.9l64.9-73.3c1.4-1.6,2.9-3.4,4.3-5
	c1.6-1.8,2.9-4,0.9-6c-1.8-2-3.7-0.6-5.4,1c-1.4,1.6-3.2,3-4.6,4.4c-5.7,4.1-11.8,7.5-18.4,10c-11.4,4.4-19.6,13.7-27.1,23.6
	c-13.4,17.5-28.2,33.5-42.6,49.8c-5.9,6.5-9.4,13.5-8.7,23c0.5,5-0.7,10.1-3.4,14.3c-10.5,0.8-19.3-5.6-28.7-9.1
	c-1.3-0.4-2.1-2.2-2.7-3.8c-3.4-8.9,0.4-29.6,6.6-36.5l76.1-86l3.7-4.2c1.6-2,3.7-4.2,1.4-6.9c-1.8-2-3.7-0.6-5.4,1.2
	c-0.9,0.8-1.8,1.6-2.9,2.4c-6.2,5-12.7,9.7-20.3,12.1c-7,2.2-12.5,7.3-17.6,13.1c-14.4,16.3-28.7,32.8-43.3,49
	c-7.7,8.3-12.5,17.3-11.8,30c0.4,6,0.2,13.9-9.1,11.1c-2.3-0.6-4.8-1-6.8-2.2c-6.2-3.6-16.9-1.4-18.2-11.5
	c-1.8-13.3-2.1-26.2,8.4-37.9c58.7-65.1,116.6-131.2,174.7-196.9l3.7-4.2c1.8-2.2,4.6-4.4,2.1-7.5c-2.9-3.4-4.5,1.2-6.8,2
	c-8.7,8.7-20,11.5-30.5,15.5c-14.6,5.6-15.5,7.1-15.7,24.2c0,5.8-0.2,11.3-3.6,16.1c-7.5-0.8-14.1-4.8-21-7.3
	c-1.4-0.5-2.6-1.5-3.4-2.8c-3-5.2-0.7-30.8,3.6-35.7c16-18.3,32.3-36.5,48.5-54.8c3.9-4.4,8.6-5.4,13.7-5.4
	c26.7,0.2,53.5-0.2,80.2,0.2c10,0.2,17.5-3.6,24.4-11.5c21-23.6,12.3-21.2,39.8-10.9c29.8,11.1,59.7,21.4,89,34.2
	c1.4,5.2-2,8.1-4.5,11.3c-11.3,14.9-23.4,29.1-36.3,42.7c-6.4,6.9-10.5,14.1-9.8,24.6C402.1,173.2,401.8,177,398.8,179.4z"/>
<path class="st2" d="M243.6,405.5c-1.8-13.5,3-23,11.4-32.8c44.4-51.8,89.5-102.8,134.6-153.5c3.9-4.4,5-9.1,5.4-15.1
	c0.5-8.1-2.9-16.7,2.3-24.2c-2.5,13.9-1.1,28-1.1,42.1c0,9.3-2.3,16.5-8.4,23.2c-45.8,51.2-91.1,102.8-136.8,154.1
	C249.2,401.9,247.6,405.7,243.6,405.5z"/>
<path class="st2" d="M398.8,179.4c-2.5-17.7,3.2-31.2,15.3-42.7c14.3-13.5,25.9-30,38.1-45.7c0.7,0.6,2,0.8,2.1,1.6
	c3.2,14.5,1.1,29.2,1.3,43.9c0,7.5-5.5,11.5-9.8,16.1c-12,13.5-23.9,27.2-35.8,40.5c-2,2.2-3.4,5.4-6.6,6
	C399.8,193.1,406.6,184.1,398.8,179.4z"/>
<path class="st2" d="M124.2,415.2c-3-20.8,3.9-36.1,18-49.8c14.6-14.5,27.5-31.2,40.6-47.5c11.2-13.7,25.7-19.8,41.4-23.2
	c-20.5,23.4-40.8,46.8-61.3,70.1c-5,5.8-10.2,11.3-11.2,20c-0.5,4-3.6,6-5.9,8.5C138.4,400.3,132.9,409.7,124.2,415.2z"/>
<path class="st2" d="M183,419.6c-2.9-20.8,3.9-36.9,18.2-50.2c10.3-9.9,19.8-20.6,28.4-32c11.5-15.1,26.4-20.8,42.5-24.8
	c-14.8,16.9-29.4,33.9-44.2,50.8c-4.6,5.2-9.1,10.5-10.3,18.3c-0.2,0.6,0,1.6-0.4,2C206,395.8,196.8,410.3,183,419.6z"/>
<path class="st2" d="M70.2,387.4c5.3,0,6.4-4,5.9-8.9c-2-15.5,4.3-26.6,14.1-36.9c11.6-11.9,23.2-24.2,33.2-37.7
	c13.2-17.7,30.3-26,49-31.8c-25.1,28.6-50.3,57.4-75.4,86c-4.8,5.4-9.1,10.9-10.7,18.9C84.4,385.5,77.1,389.6,70.2,387.4z"/>
<path class="st3" d="M177.7,185.1c0-7.7,0.2-15.5,0-23.2c-0.2-9.7,3.6-15.7,11.8-18.7c12.7-4.4,25.3-9.5,38-14.1
	C211.2,148.4,195,167.3,177.7,185.1z"/>
</svg>
