<?xml version="1.0" encoding="utf-8"?>
<!-- Generator: Adobe Illustrator 22.1.0, SVG Export Plug-In . SVG Version: 6.00 Build 0)  -->
<svg version="1.1" id="Layer_1" xmlns="http://www.w3.org/2000/svg" xmlns:xlink="http://www.w3.org/1999/xlink" x="0px" y="0px"
	 viewBox="0 0 500 500" style="enable-background:new 0 0 500 500;" xml:space="preserve">
<style type="text/css">
	.st0{fill:#302E2F;}
	.st1{fill:#FEFEFE;}
	.st2{fill:#EFEFEF;}
	.st3{fill:#343233;}
</style>
<title>Quentin_YouTube CoverArtboard 1</title>
<path class="st0" d="M85,343.3c-0.2-5.4-0.7-10.8-0.4-16.2c0.2-8,0.7-15.4-8.4-20.1c-4.8-2.4-6.3-8.5-6.3-14.3c0-6.5-0.2-13,0-19.5
	c0.2-7.6-2.8-12.8-7.4-19.5c-7.6-11.3-16-20.6-25.3-30.3c-9.5-10-5.2-43.1,5.2-53.7c20.6-21.2,41.8-42,62.6-62.8
	c6.7-6.7,15.2-8.9,24.7-8.9c35.9,0.2,72.1-0.2,108.1,0.2c7.8,0,13.6-2.2,19.1-7.8c12.8-13.2,26-26,38.8-39.2
	c7.6-7.6,16.2-11.5,27.1-11.3c11.5,0.2,23.2,0.4,34.6,0c10.8-0.4,19.5,3.7,27.1,11.3c23.4,23.4,46.8,47,70.4,70.4
	c7.6,7.6,11.3,16.5,11,27.1c0,5.9-0.6,11.7,0,17.3c2.4,20.6-2.2,38.6-19.1,52.2c-1.3,5.2-4.5,8.9-8.2,12.6l-32.9,32.9
	c-6.1,5.9-9.3,12.8-9.1,21.2c0.4,13.2-5.2,23.4-14.3,32.5c-35.7,35.5-71.4,71.2-107,107.2c-12.1,12.3-25.3,15.8-42.7,9.7
	c-36.4-13-73-24.9-109.8-36.6c-16.7-5.4-28.2-14.5-28.8-33.1c-0.2-3.9-2.2-6.7-4.6-9.5C86.5,351.6,83.5,348.3,85,343.3z"/>
<path class="st1" d="M254.1,418.7c-4.1,3.5-8.4,1.1-12.3-0.2c-39.6-13.2-79.2-26.4-118.7-39.6c-9.7-3.3-13.2-10.2-10.6-19.9
	c1.7-6.3,5.8-2.4,8.4-1.5c26,8.5,52,17.1,77.7,25.8l19.5,6.5c3.3,1.1,7.6,3.7,9.3-0.9c1.7-5-3.7-5.2-6.7-6.3
	c-26-8.7-51.8-17.3-77.7-26c-11.3-3.7-22.5-7.8-33.8-11c-8.3-2.4-12.1-6.5-11.3-15.4c0.7-5.6,0.2-11.5,0.2-18.8
	c9.7,3.3,18.8,5.9,27.9,8.9c29.4,9.7,58.7,19.7,87.9,29.5c2.4,0.9,4.8,1.7,7.1,2.4s5.4,1.3,6.5-1.7c1.3-3-1.3-4.5-3.9-5.4
	c-1.9-0.6-4.1-1.3-6.1-2.2C176.8,329,135.9,315.2,95,302c-8.7-2.8-12.8-6.9-11.7-16.2c0.6-6.5,0.6-13,0-19.5
	c-0.7-7.6,1.7-8.2,8.4-5.9c40.5,13.9,81.2,27.3,121.9,40.7c0.9,0.5,2,0.8,3,0.9c3.9,0.6,9.1,5.4,11-0.6c1.7-5.2-4.8-5.2-8.2-6.3
	l-89-29.9c-17.1-5.6-34-11.7-51.1-16.9c-7.4-2.2-11-6.1-10.4-13.9c0.1-1.1,0.1-2.2,0-3.3c-0.2-43.7,2.2-48.3,35.9-75.8
	c5-4.1,9.7-3.3,15.2-1.3c22.7,7.6,45.7,15.2,68.6,22.7c3.5,1.1,8.4,5,10-0.9c1.5-5.2-4.6-5.2-8-6.5c-23.2-7.8-46.6-15.4-69.5-23.4
	c-9.3-3.3-16.7-1.5-23.4,5.6c-5.7,6-11.3,12.3-17.8,17.5c-14.5,11.5-21.2,25.8-18.6,44.4c0.4,2.6,2.2,7.6-2.2,7.8s-10.6-1.3-11-6.9
	c-0.9-14.1-4.3-28.4,8.5-40.3c18.4-17.1,36.2-35.3,53.7-53.5c6.5-6.7,13.4-9.7,23-9.5c46.6,0.4,93.1,0.2,139.7,0.2h7.6
	c2.8,0,5.6-0.7,5.6-3.5c0.2-3.9-3-4.3-6.1-4.3h-14.8C281,87.4,295.7,72,310.9,56.8c3-3,7.8-3.3,12.1-3.5
	c43.5-1.3,43.5-1.3,74.3,29.2c3.9,3.9,7.4,7.8,11,11.7c3.7,6.5-1.3,10.2-4.8,13.9c-11.9,12.6-24.5,24.7-36.6,36.8
	c-32.7,32.3-64.8,64.8-97,96.6c-8,7.8-11.7,16.2-11.7,27.7c0.4,43.7,0.2,87.3,0.2,131C258.5,406.8,258.2,413.3,254.1,418.7z"/>
<path class="st2" d="M254.1,418.7c0-51.1,0.2-102.2-0.2-153.5c0-9.7,2.8-17.1,9.7-23.8c45.5-45,90.8-90.4,136-136
	c3.3-3.3,7.6-5.8,8-11c12.8,12.6,25.8,25.1,38.5,37.9c0.8,0.7,1.6,1.5,2.2,2.4c5.9,8,6.5,55-0.2,61.9c-19.3,19.9-39.2,39-59.1,58.7
	c-2.4-5-0.6-9.5-1.3-14.1c-0.2-2.8,0-6.3-4.1-6.3s-3.9,3.5-3.9,6.3c0,14.1-0.2,28.2,0,42.2c0.4,6.9-2.3,13.7-7.4,18.4
	c-37.9,37.7-75.6,75.6-113.5,113.3C257.5,416.5,255.9,417.7,254.1,418.7z"/>
<path class="st3" d="M228.1,173.6c0,3.3-0.4,6.5,0,9.7c4.3,23.8-12.6,35.9-27.3,48.9c-4.1,3.7-10,3.7-15.4,1.9
	c-22.5-7.6-45-14.9-67.3-22.5c-3-1.1-7.2-1.5-5.8-5.9c1.5-4.3,5-2.4,8.2-1.3c21,7.1,42.2,13.9,63.2,21.2c7.4,2.6,12.3,0.9,18.4-4.1
	c14.5-11.7,20.8-25.8,18.4-44.2c-1.1-8.9-0.2-18-0.2-27.1c0-3.3-0.2-7.4,4.3-7.1c3.7,0.2,3.5,3.9,3.5,6.9
	C228.1,157.7,228.1,165.5,228.1,173.6z"/>
</svg>
