<?xml version="1.0" encoding="utf-8"?>
<!-- Generator: Adobe Illustrator 22.1.0, SVG Export Plug-In . SVG Version: 6.00 Build 0)  -->
<svg version="1.1" id="Layer_1" xmlns="http://www.w3.org/2000/svg" xmlns:xlink="http://www.w3.org/1999/xlink" x="0px" y="0px"
	 viewBox="0 0 500 500" style="enable-background:new 0 0 500 500;" xml:space="preserve">
<style type="text/css">
	.st0{fill:#302E2F;}
	.st1{fill:#FEFEFE;}
	.st2{fill:#EFEFEF;}
	.st3{fill:#343233;}
</style>
<title>Quentin_YouTube CoverArtboard 1</title>
<path class="st0" d="M408.8,355c-2.4,2.8-4.3,5.6-4.5,9.5c-0.6,18.6-12.1,27.7-28.8,33.1c-36.8,11.7-73.4,23.6-109.8,36.6
	c-17.3,6.1-30.5,2.6-42.7-9.7c-35.6-35.9-71.3-71.7-107-107.2c-9.1-9.1-14.7-19.3-14.3-32.5c0.2-8.4-3-15.4-9.1-21.2l-32.9-32.9
	c-3.7-3.7-6.9-7.4-8.2-12.6C34.6,204.5,30,186.5,32.4,166c0.6-5.6,0-11.5,0-17.3c-0.3-10.6,3.4-19.5,11-27.1
	c23.6-23.4,47-47,70.4-70.4c7.6-7.6,16.2-11.7,27.1-11.3c11.5,0.4,23.2,0.2,34.6,0c10.8-0.2,19.5,3.7,27.1,11.3
	c12.8,13.2,26,26,38.8,39.2c5.4,5.6,11.3,7.8,19.1,7.8c35.9-0.4,72.1,0,108.1-0.2c9.5,0,18,2.2,24.7,8.9
	c20.8,20.8,42,41.6,62.6,62.8c10.4,10.6,14.7,43.7,5.2,53.7c-9.3,9.8-17.8,19.1-25.3,30.3c-4.5,6.7-7.5,11.9-7.4,19.5
	c0.2,6.5,0,13,0,19.5c0,5.8-1.5,11.9-6.3,14.3c-9.1,4.8-8.7,12.1-8.5,20.1c0.2,5.4-0.2,10.8-0.4,16.2
	C414.6,348.3,411.6,351.6,408.8,355z"/>
<path class="st1" d="M241.7,400.3c0-43.7-0.2-87.3,0.2-131c0-11.5-3.7-19.9-11.7-27.7c-32.3-31.8-64.3-64.3-97-96.6
	c-12.1-12.1-24.7-24.3-36.6-36.8c-3.5-3.7-8.4-7.4-4.8-13.9c3.6-3.9,7.1-7.8,11-11.7c30.7-30.5,30.7-30.5,74.3-29.2
	c4.3,0.2,9.1,0.5,12.1,3.5c15.2,15.2,29.9,30.5,45.5,46.8h-14.8c-3.1,0-6.3,0.4-6.1,4.3c0,2.8,2.8,3.5,5.6,3.5h7.6
	c46.6,0,93.1,0.2,139.7-0.2c9.6-0.2,16.5,2.8,23,9.5c17.6,18.2,35.3,36.4,53.7,53.5c12.8,11.9,9.3,26.2,8.4,40.3
	c-0.4,5.6-6.7,7.1-11,6.9s-2.6-5.2-2.2-7.8c2.6-18.6-4.1-32.9-18.6-44.4c-6.5-5.2-12.1-11.5-17.8-17.5c-6.7-7.2-14.1-8.9-23.4-5.6
	c-23,8-46.3,15.6-69.5,23.4c-3.4,1.3-9.5,1.3-8,6.5c1.6,5.9,6.5,1.9,10,0.9c23-7.6,45.9-15.2,68.6-22.7c5.4-1.9,10.2-2.8,15.2,1.3
	c33.8,27.5,36.2,32.1,36,75.8c-0.1,1.1-0.1,2.2,0,3.3c0.6,7.8-3,11.7-10.4,13.9c-17.1,5.2-34,11.3-51.1,16.9l-89,29.9
	c-3.5,1.1-10,1.1-8.2,6.3c1.9,6.1,7.1,1.3,11,0.6c1-0.1,2.1-0.4,3-0.9c40.7-13.4,81.4-26.9,121.9-40.7c6.7-2.4,9.1-1.7,8.4,5.9
	c-0.6,6.5-0.6,13,0,19.5c1.1,9.3-3,13.4-11.7,16.2c-40.9,13.2-81.8,27-122.8,40.7c-2,0.9-4.1,1.5-6.1,2.2c-2.6,0.9-5.2,2.4-3.9,5.4
	c1.1,3,4.1,2.4,6.5,1.7c2.4-0.6,4.8-1.5,7.1-2.4c29.2-9.7,58.5-19.7,87.9-29.5c9.1-3,18.2-5.6,27.9-8.9c0,7.4-0.4,13.2,0.2,18.8
	c0.9,8.9-3,13-11.3,15.4c-11.3,3.2-22.5,7.3-33.8,11c-26,8.7-51.7,17.3-77.7,26c-3,1.1-8.4,1.3-6.7,6.3c1.7,4.5,6.1,1.9,9.3,0.9
	l19.5-6.5c25.7-8.7,51.7-17.3,77.7-25.8c2.6-0.9,6.7-4.8,8.4,1.5c2.6,9.7-0.9,16.7-10.6,19.9c-39.5,13.2-79,26.4-118.7,39.6
	c-3.9,1.3-8.2,3.7-12.3,0.2C241.9,413.3,241.7,406.8,241.7,400.3z"/>
<path class="st2" d="M241.2,415.1c-37.9-37.7-75.6-75.6-113.5-113.3c-5-4.8-7.7-11.5-7.4-18.4c0.2-14.1,0-28.1,0-42.2
	c0-2.8,0.2-6.3-3.9-6.3s-3.9,3.5-4.1,6.3c-0.6,4.6,1.1,9.1-1.3,14.1c-19.9-19.7-39.9-38.8-59.1-58.7c-6.7-6.9-6.1-53.9-0.2-61.9
	c0.6-0.9,1.3-1.7,2.2-2.4c12.8-12.8,25.8-25.3,38.5-37.9c0.4,5.2,4.8,7.8,8,11c45.2,45.6,90.5,91,136,136c6.9,6.7,9.7,14.1,9.7,23.8
	c-0.4,51.3-0.2,102.4-0.2,153.5C244.2,417.7,242.6,416.5,241.2,415.1z"/>
<path class="st3" d="M270,150.2c0-3-0.2-6.7,3.5-6.9c4.5-0.2,4.3,3.9,4.3,7.1c0,9.1,0.9,18.2-0.2,27.1c-2.4,18.4,3.9,32.5,18.4,44.2
	c6.1,5,11.1,6.7,18.4,4.1c21-7.4,42.2-14.1,63.2-21.2c3.2-1.1,6.7-3,8.2,1.3c1.3,4.3-2.8,4.8-5.8,5.9c-22.4,7.6-44.8,14.9-67.4,22.5
	c-5.4,1.7-11.3,1.7-15.4-1.9c-14.7-13-31.6-25.1-27.3-48.9c0.4-3.2,0-6.5,0-9.7C269.9,165.5,270,157.7,270,150.2z"/>
</svg>
