<?xml version="1.0" encoding="utf-8"?>
<!-- Generator: Adobe Illustrator 22.1.0, SVG Export Plug-In . SVG Version: 6.00 Build 0)  -->
<svg version="1.1" id="Layer_1" xmlns="http://www.w3.org/2000/svg" xmlns:xlink="http://www.w3.org/1999/xlink" x="0px" y="0px"
	 viewBox="0 0 500 500" style="enable-background:new 0 0 500 500;" xml:space="preserve">
<style type="text/css">
	.st0{fill:#302E2F;}
	.st1{fill:#FEFEFE;}
	.st2{fill:#EFEFEF;}
</style>
<title>Quentin_YouTube CoverSciissors</title>
<path class="st0" d="M95,355.4c1.8-10.5,10-16.5,16.9-23.5c2.5-2.5,4.9-5.2,7.3-7.8c2.4-9.6,10.5-14.8,17-21.2
	c4.7-4.6,7.4-8.7,5.8-16.2c-1.4-6.6,2.4-13.9,1.3-20.8c-0.4-1.8,1.6-5.2-2.7-4.6c-15.8,5-31.7,9.3-47.1,15.1
	c-19.2,7.3-35.9-1.1-51.7-8.9c-12.1-6-11.2-45.7,0-53.5c2.9-2,6.5-3,10-4.3c27.9-9.3,56-18.5,84.1-27.4c5.6-1.8,8.9-4.1,8-10.5
	c-2.4-15.5,4-27,15.8-37.3c13.8-12.1,26.3-25.3,39.2-38.2c6.7-6.8,14.5-10.1,24.1-10c16,0.4,32.1-0.2,48,0.2
	c7.4,0.2,13.2-1.8,18.3-7.3c10.3-10.8,21.4-21,31.9-31.5c5.6-6,13.6-9.2,21.8-8.9c50.2,0.7,36.4-5.5,71.6,28.5
	c12.5,12.1,24.5,24.5,37.2,36.3c8.3,7.7,12,16.5,11.4,27.8c-0.4,7.1-0.4,14.2,0,21.3c0.5,9.6-2.2,18.1-8.7,25.3
	c-0.9,4.6-4,7.8-7.3,11c-11.2,11-22.5,22.2-33.9,33.3c-5.3,5-8.3,10.7-8,18c0.4,10.1-4,18.5-11.1,25.4c-30.5,30.1-61,60-91.5,89.8
	c-9.8,9.4-20.7,12.1-33.9,7.5c-16.5-5.9-33.2-10.7-49.7-16.4c-6.5-2.3-11.2-1.1-16.1,3.7c-14.3,14.4-29.2,28.3-43.3,42.9
	c-11.1,11.4-23.4,14.9-38.4,8.7c-4.7-2-9.8-3-14.5-5.2c-10.9-5-13.8-10.5-12.1-22.2C95.1,367.9,93.7,361.6,95,355.4z"/>
<path class="st1" d="M132.9,389.4c-6.9-2.1-13.8-4.1-20.7-6.2c-2.4-0.5-4.3-2.1-5.4-4.3c-3.4-7.8,0.5-26.9,6.9-33.1l101.9-100
	l3.3-3.2c3.6-3.9,9.1-7.5,5.4-13.5c-3.8-6-10-4.3-15.4-2.3c-39.5,12.8-79,25.1-118.2,38.8c-16,5.5-28.1-2.5-41.5-6.8
	c-5.4-1.8-4.7-33.6,0.2-36.6c2-1.2,4.5-1.6,6.9-2.3c55.6-18.3,111.4-36.6,167.1-54.8c15.2-5,21-15.6,16.5-30.8
	c-0.5-1.8-1.3-3.4-3.4-3.2s-2.9,1.8-2.9,3.7v2.7c-0.7,18.1-0.7,18.1-18.5,23.8c-19.6,6.4-39.3,12.8-58.9,19
	c-3.6-16.5,0-29.2,13.2-40.2c13.4-11,25.2-24,37.3-36.3c4.7-4.8,10-6.8,16.9-6.8c26.8,0.2,53.8,0.2,80.7,0c3.1,0,8,1.4,8-3.2
	s-4.9-3-8-3.4c-2.9-0.2-5.8,0-10.1,0c13.4-13.3,25.7-25.8,38.3-38.1c2.4-2.3,5.8-3.2,9.2-3.2h32.6c4.3,0,8.4,1.7,11.4,4.7
	c9.8,9.6,19.4,19.4,29.2,29.2c1.5,5.9-3.3,8.5-6.5,11.7c-23.7,23.5-47.6,47-71.6,70.4c-60.5,59.4-120.9,119-181.8,178
	c-10,9.6-16.1,19.6-14.1,33.4c0.4,2.7,0.2,5.4-0.5,8C138.8,388.1,137.4,391.2,132.9,389.4z"/>
<path class="st2" d="M132.9,389.4c4.9-1.2,4.5-5.3,4-8.5c-2.9-18.3,5.6-30.6,18.7-43.2c84.1-81.5,167.5-163.8,251-245.8
	c2.7-2.7,5.3-5.7,7.8-8.5c10.7,10.3,21.4,20.6,32.3,30.9c0.7,0.6,1.3,1.2,1.8,2c4.4,5.9,5.3,45,0.2,50.2
	c-16.3,16.4-33.2,32.4-50,48.6c-1.8-3.7-0.7-7.3-1.1-10.7c-0.4-2.7,0.2-6-3.8-5.7c-3.3,0.2-2.9,3.2-2.9,5.5c0,11.6-0.2,23.1,0,34.7
	c0.3,5.4-1.8,10.6-5.8,14.2c-31.9,31.1-63.7,62.3-95.4,93.5c-1.6,1.6-3.1,3.9-6,3.6c-3.4-3-3.6-7.1-3.8-11.4c0-12.6-0.2-25.3,0-37.9
	c0.2-8.2-2-14.4-10.9-17.1c-2.7-0.6-4.9-2.5-6-5c0.5-5.5-1.5-6.8-6-3.4c-1.6,1.3-3.1,2.8-4.5,4.3c-35.7,35-71.5,70.1-107.3,105.1
	C142.3,388.1,139,393.1,132.9,389.4z"/>
<path class="st1" d="M263.4,278.8c17.4,3,20.3,6.4,20.5,23.8v47.5c-1.6,1.1-3.4,0.7-5.3,0.2c-2.5-0.7-5.3-1.4-7.8-2.3
	c-19-6.2-38.1-12.6-57.3-18.9c9.1-13.5,9.8-13.9,24.3-9.1l17.9,5.9c2.7,0.9,6.3,3.2,7.6-1.1c1.1-3.9-3.3-4.1-6-5
	c-8.5-2.9-17-5.7-25.7-8.5C242.5,300.1,253,289.4,263.4,278.8z"/>
<path class="st1" d="M220.8,234c-6.9,6-13.1,11.2-18.9,16.5c-2,2-4,2.1-6.5,1.6c-1.4-0.4-3.8-0.2-3.6,1.4
	c0.9,13.2-12.3,16.2-18.1,24.5c-2.2,3.2-5.4,5.5-8.2,8.2c-4,3.7-7.4,1.8-9.6-2c-3.4-5.7,0-27,4.7-31.8c2.4-2.3,4.4-4.8,7.8-5.9
	c14.5-4.6,29-9.4,43.7-14.1C213.7,231.8,215.9,230.9,220.8,234z"/>
</svg>
