<?xml version="1.0" encoding="utf-8"?>
<!-- Generator: Adobe Illustrator 22.1.0, SVG Export Plug-In . SVG Version: 6.00 Build 0)  -->
<svg version="1.1" id="Layer_1" xmlns="http://www.w3.org/2000/svg" xmlns:xlink="http://www.w3.org/1999/xlink" x="0px" y="0px"
	 viewBox="0 0 500 500" style="enable-background:new 0 0 500 500;" xml:space="preserve">
<style type="text/css">
	.st0{fill:#302E2F;}
	.st1{fill:#FEFEFE;}
	.st2{fill:#EFEFEF;}
</style>
<title>Quentin_YouTube CoverSciissors</title>
<path class="st0" d="M401.5,374.4c1.6,11.7-1.3,17.2-12.1,22.2c-4.7,2.2-9.8,3.2-14.5,5.2c-15,6.2-27.4,2.7-38.4-8.7
	c-14.1-14.6-29-28.5-43.3-42.9c-4.9-4.8-9.6-6-16.1-3.7c-16.5,5.7-33.2,10.5-49.7,16.4c-13.2,4.6-24.1,2-33.9-7.5
	c-30.6-29.8-61.1-59.8-91.5-89.8c-7.1-6.9-11.4-15.3-11.1-25.4c0.3-7.3-2.7-13-8-18c-11.4-11-22.7-22.3-33.9-33.3
	c-3.3-3.2-6.3-6.4-7.3-11c-6.5-7.1-9.2-15.7-8.7-25.3c0.4-7.1,0.4-14.2,0-21.3c-0.6-11.2,3.1-20.1,11.4-27.8
	C57.1,91.8,69,79.4,81.5,67.3c35.2-34,21.4-27.7,71.6-28.5c8.2-0.3,16.1,2.9,21.8,8.9c10.5,10.5,21.6,20.6,31.9,31.5
	c5.1,5.5,10.9,7.5,18.3,7.3c15.9-0.4,32,0.2,48-0.2c9.6-0.1,17.4,3.2,24.1,10c12.9,13,25.4,26.2,39.2,38.2
	c11.8,10.3,18.1,21.9,15.8,37.3c-0.9,6.4,2.4,8.7,8,10.5c28.1,8.9,56.2,18.1,84.1,27.4c3.5,1.3,7.1,2.3,10,4.3
	c11.2,7.8,12.1,47.5,0,53.5c-15.8,7.8-32.5,16.2-51.7,8.9c-15.4-5.9-31.4-10.1-47.1-15.1c-4.4-0.5-2.4,2.8-2.7,4.6
	c-1.1,6.9,2.7,14.2,1.3,20.8c-1.6,7.5,1.1,11.6,5.8,16.2c6.5,6.4,14.6,11.6,17,21.2c2.4,2.7,4.7,5.3,7.3,7.8
	c6.9,6.9,15,13,16.9,23.5C402.2,361.6,400.8,367.9,401.5,374.4z"/>
<path class="st1" d="M355.8,384.8c-0.7-2.6-0.9-5.3-0.5-8c2-13.9-4.1-23.8-14.1-33.4c-60.9-59-121.3-118.6-181.8-178
	c-24-23.5-47.9-46.9-71.6-70.4c-3.3-3.2-8-5.9-6.5-11.7c9.8-9.8,19.4-19.6,29.2-29.2c3-3.1,7.1-4.8,11.4-4.7h32.6
	c3.4,0,6.9,0.9,9.2,3.2c12.5,12.3,24.8,24.7,38.3,38.1c-4.4,0-7.3-0.2-10.1,0c-3.1,0.4-8-1.2-8,3.4s4.9,3.2,8,3.2
	c26.8,0.2,53.8,0.2,80.7,0c6.9,0,12.1,2,16.9,6.8c12.1,12.3,23.9,25.3,37.3,36.3c13.2,11,16.9,23.6,13.2,40.2
	c-19.6-6.2-39.3-12.6-58.9-19c-17.8-5.7-17.8-5.7-18.5-23.8v-2.7c0-1.9-0.7-3.5-2.9-3.7c-2.2-0.2-2.9,1.4-3.4,3.2
	c-4.5,15.1,1.3,25.8,16.5,30.8c55.8,18.2,111.5,36.5,167.1,54.8c2.4,0.7,4.9,1.1,6.9,2.3c4.9,3,5.6,34.9,0.2,36.6
	c-13.4,4.3-25.5,12.3-41.5,6.8c-39.2-13.7-78.7-26-118.2-38.8c-5.4-2-11.6-3.7-15.4,2.3c-3.6,6.1,1.8,9.6,5.4,13.5l3.3,3.2
	l101.9,100c6.3,6.2,10.3,25.3,6.9,33.1c-1.1,2.2-3.1,3.7-5.4,4.3c-6.9,2.1-13.8,4.1-20.7,6.2C358.5,391.2,357.1,388.1,355.8,384.8z"
	/>
<path class="st2" d="M350.8,384.8c-35.8-35-71.6-70.1-107.3-105.1c-1.4-1.5-2.9-2.9-4.5-4.3c-4.5-3.4-6.5-2.1-6,3.4
	c-1.1,2.5-3.3,4.4-6,5c-8.9,2.7-11.1,8.9-10.9,17.1c0.2,12.6,0,25.3,0,37.9c-0.2,4.3-0.4,8.4-3.8,11.4c-2.9,0.4-4.4-2-6-3.6
	c-31.7-31.2-63.5-62.4-95.3-93.5c-4-3.6-6.1-8.8-5.8-14.2c0.2-11.6,0-23.1,0-34.7c0-2.3,0.4-5.3-2.9-5.5c-4-0.3-3.5,3-3.8,5.7
	c-0.4,3.4,0.7,6.9-1.1,10.7c-16.8-16.2-33.7-32.2-50-48.6c-5.1-5.2-4.2-44.3,0.2-50.2c0.5-0.8,1.1-1.4,1.8-2
	c10.9-10.3,21.6-20.6,32.3-30.9c2.5,2.8,5.1,5.9,7.8,8.5c83.6,82,167,164.3,251,245.8c13,12.6,21.6,24.9,18.7,43.2
	c-0.5,3.2-0.9,7.3,4,8.5C356.9,393.1,353.6,388.1,350.8,384.8z"/>
<path class="st1" d="M264.3,311.3c-8.7,2.9-17.2,5.7-25.7,8.5c-2.7,0.9-7.1,1.1-6,5c1.3,4.3,4.9,2,7.6,1.1l17.9-5.9
	c14.5-4.8,15.2-4.4,24.3,9.1c-19.2,6.2-38.3,12.6-57.3,18.9c-2.5,0.9-5.3,1.6-7.8,2.3c-1.8,0.5-3.6,0.9-5.3-0.2v-47.5
	c0.2-17.4,3.1-20.8,20.5-23.8C242.9,289.4,253.4,300.1,264.3,311.3z"/>
<path class="st1" d="M283.9,232.5c14.7,4.6,29.2,9.4,43.7,14.1c3.4,1.1,5.4,3.6,7.8,5.9c4.7,4.8,8.1,26.1,4.7,31.8
	c-2.2,3.8-5.6,5.7-9.6,2c-2.7-2.7-6-5-8.2-8.2c-5.8-8.4-19-11.4-18.1-24.5c0.2-1.6-2.2-1.8-3.6-1.4c-2.5,0.5-4.5,0.4-6.5-1.6
	c-5.8-5.3-12-10.5-18.9-16.5C280,230.9,282.2,231.8,283.9,232.5z"/>
</svg>
